<?xml version="1.0" encoding="UTF-8" standalone="no"?>
<svg
   xmlns:dc="http://purl.org/dc/elements/1.1/"
   xmlns:cc="http://creativecommons.org/ns#"
   xmlns:rdf="http://www.w3.org/1999/02/22-rdf-syntax-ns#"
   xmlns:svg="http://www.w3.org/2000/svg"
   xmlns="http://www.w3.org/2000/svg"
   xmlns:sodipodi="http://sodipodi.sourceforge.net/DTD/sodipodi-0.dtd"
   xmlns:inkscape="http://www.inkscape.org/namespaces/inkscape"
   width="156.954"
   height="32.99"
   viewBox="0 0 147.14398 30.927835"
   version="1.1"
   id="svg24"
   sodipodi:docname="sentido-labs-mono.svg"
   inkscape:export-filename="/home/alberto/proyectos/cedro/doc/sentido-labs-mono.png"
   inkscape:export-xdpi="69.83934"
   inkscape:export-ydpi="69.83934"
   inkscape:version="1.0.2 (e86c870879, 2021-01-15)">
  <metadata
     id="metadata30">
    <rdf:RDF>
      <cc:Work
         rdf:about="">
        <dc:format>image/svg+xml</dc:format>
        <dc:type
           rdf:resource="http://purl.org/dc/dcmitype/StillImage" />
        <dc:title></dc:title>
      </cc:Work>
    </rdf:RDF>
  </metadata>
  <defs
     id="defs28" />
  <sodipodi:namedview
     pagecolor="#ffffff"
     bordercolor="#666666"
     borderopacity="1"
     objecttolerance="10"
     gridtolerance="10"
     guidetolerance="10"
     inkscape:pageopacity="0"
     inkscape:pageshadow="2"
     inkscape:window-width="1034"
     inkscape:window-height="480"
     id="namedview26"
     showgrid="false"
     inkscape:zoom="7.7729783"
     inkscape:cx="78.476997"
     inkscape:cy="16.495001"
     inkscape:window-x="749"
     inkscape:window-y="784"
     inkscape:window-maximized="0"
     inkscape:current-layer="svg24" />
  <path
     d="M30.286 15.32a14.967 14.967 0 0 1-29.933 0 14.967 14.967 0 1 1 29.933 0z"
     fill="none"
     stroke="#bfbfbf"
     stroke-width=".706"
     id="path2" />
  <path
     d="M30.286 15.32c0 8.266-6.7 14.966-14.966 14.966-8.266 0-14.967-6.7-14.967-14.966C.353 7.054 7.053.353 15.32.353c8.266 0 14.966 6.7 14.966 14.967z"
     fill="none"
     stroke="#b8b8b8"
     stroke-width=".706"
     id="path4" />
  <path
     d="M28.546 9.825a13.227 8.084 0 1 1-26.453 0 13.227 8.084 0 1 1 26.453 0z"
     fill="none"
     stroke="#b8b8b8"
     stroke-width=".729"
     id="path6" />
  <path
     d="M28.523 20.803a13.203 8.168 0 1 1-26.406 0 13.203 8.168 0 1 1 26.406 0z"
     fill="none"
     stroke="#b8b8b8"
     stroke-width=".732"
     id="path8" />
  <path
     d="M30.286 15.32c0 8.266-6.7 14.966-14.966 14.966-8.266 0-14.967-6.7-14.967-14.966C.353 7.054 7.053.353 15.32.353c8.266 0 14.966 6.7 14.966 14.967z"
     fill="none"
     stroke="#878787"
     stroke-width=".706"
     id="path10" />
  <path
     d="M28.546 9.825a13.227 8.084 0 0 1-26.453 0 13.227 8.084 0 1 1 26.453 0z"
     fill="none"
     stroke="#878787"
     stroke-width=".729"
     id="path12" />
  <path
     d="M28.523 20.803a13.203 8.168 0 1 1-26.406 0 13.203 8.168 0 1 1 26.406 0z"
     fill="none"
     stroke="#878787"
     stroke-width=".732"
     id="path14" />
  <path
     d="M5.58 15.73c-.268-5.497 4.201-10.3 9.676-10.261 2.703.019 5.245.999 7 2.812l3.75-3.906C23.14 1.507 19.312 0 15.256 0c-4.222 0-8.05 1.717-10.823 4.49-4.42 4.42-2.941 8.641 1.148 11.24zm19.482-.881c.283 5.64-4.276 10.369-9.679 10.322-2.702-.024-5.245-1-7-2.813l-3.75 3.906c2.868 2.868 6.695 4.375 10.75 4.375 4.223 0 8.05-1.716 10.823-4.489 4.328-4.328 2.97-8.687-1.144-11.301z"
     fill="#878787"
     id="path16" />
  <path
     d="M112.264 26.372c0 .87.52 1.832 2.079 1.832l1.638.007c.92.007 1.4.193 1.4.945 0 .753-.615.674-1.332.688h-3.751l.24 1.08h3.798c1.646 0 2.125-.375 2.125-1.742 0-1.644-1.02-2.05-2.48-2.05l-1.406-.007c-1.066 0-1.232-.314-1.232-.753 0-.671.786-.643 1.248-.643l3.518-.024-.182-1.052-3.529-.003c-1.341 0-2.106.68-2.134 1.722zm-13.947-1.736l-.186 1.08 3.69.02c.825 0 .893 1.087.893 1.424H99.43c-1.327 0-2.024.655-2.024 1.908 0 1.424.846 1.856 1.922 1.856h4.482V27.42c0-2.013-.996-2.79-1.973-2.79l-3.52.006zm1.096 3.603h3.318v1.605h-3.403c-.735 0-.843-.3-.843-.776 0-.476.147-.83.928-.83zm6.736-6.214v2.607h3.045c1.818 0 2.174 1.542 2.185 3.16.01 1.62-.39 3.132-2.083 3.132l-4.236-.006v-8.893zm3.062 3.696h-3.062v4.097l3.147.017c.837 0 .995-1.27.994-2.042-.002-.772-.136-2.073-1.079-2.072zm-12.858 5.186l-5.796-.006v-8.807h1.089V29.8l4.907.017zm37.072-6.342l-1.904-.01c-1.897-.01-2.251 1.557-2.251 3.201 0 1.644.358 3.172 2.251 3.172h1.904c1.873 0 2.229-1.514 2.229-3.172 0-1.658-.37-3.18-2.229-3.191zm0 1.102c1 .005 1.127 1.115 1.127 2.09 0 .974-.146 2.069-1.127 2.069h-1.904c-1.046 0-1.15-1.123-1.15-2.07 0-.947.105-2.105 1.15-2.1zm-13.237 5.26h.738c.365 0 .365-1.074 0-1.074h-.738c-.358 0-.358 1.075 0 1.075zm16.543-6.372v6.365h1.102v-4.68c0-.53.273-.564.593-.564h1.22c1.177 0 1.583.769 1.583 1.695v3.557h1.112v-4.343c0-.76.57-.904 1.24-.904h.553c1.221 0 1.602.82 1.602 1.69v3.557h1.093V27.37c0-1.654-1.055-2.798-2.677-2.798h-.69c-.906 0-1.578.22-1.89.76-.44-.45-1.099-.753-1.927-.76h-.7c-.454 0-1.112.865-1.112.612l-.019-.63zm-12.234.008c-1.65 0-2.187 1.358-2.187 3.16 0 1.973.836 3.205 2.047 3.205h3.69l.21-1.074h-3.9c-.878 0-.973-1.412-.973-2.132 0-1.364.279-2.107 1.014-2.085h3.715l-.238-1.074z"
     fill="#878787"
     fill-rule="evenodd"
     id="path18" />
  <path
     d="M146.99 2.782a2.29 2.29 0 1 1-4.578-.002 2.29 2.29 0 0 1 4.578.002zm-2.187.085c.371-.035.93.506.93.85l.002.35m-1.939-.007l.002-2.48 1.18.01c.457.003.75.284.75.639 0 .355-.305.638-.756.638h-1.161"
     fill="none"
     stroke="#878787"
     stroke-width=".307"
     id="path20" />
  <path
     d="M89.942.372v3.145h-1.99l-.434 2.369h2.424v6.182c0 3.94.75 7.587 4.33 7.587h4.355l.457-2.369h-4.811c-1.842 0-1.954-3.417-1.962-5.218V5.886h5.276v-2.37h-5.276V.373h-2.369zM72.7 5.961v13.69h2.359V9.587c0-.919.42-1.204 1.272-1.204l4.238.02c2.54 0 3.406 1.59 3.424 3.628v7.624h2.369v-7.624c0-3.807-2.475-6.029-5.772-6.029l-3.126-.005c-.976 0-2.4 1.884-2.412 1.34l-.03-1.377H72.7zm-11.628-.008c-3.02 0-4.7 2.62-4.7 6.152-.203 5.282 1.687 7.486 5.44 7.55h7.071l.503-2.369h-7.574c-2.589 0-2.75-1.097-2.85-3.553l11.063.037v-1.669c0-3.661-1.275-5.96-4.812-6.148zm-.037 2.369h4.178c1.968 0 2.13 1.044 2.258 3.08l-8.545-.038c.2-2.094.678-3.031 2.11-3.042zM121.267.298v5.67h-6.623c-3.954 0-4.73 3.354-4.752 6.877-.023 3.523.846 6.81 4.53 6.81l9.214-.014V.298zm-6.66 8.04h6.66v8.911l-6.845.037c-1.821 0-2.165-2.762-2.161-4.441.004-1.679.295-4.51 2.346-4.508zM103.42 3.624l-2.368-.01.037 2.282 2.368.009-.037-2.281zm.047 4.634l-2.37-.009.038 4.076c0 6.099.59 7.329 4.071 7.329l2.433-.037.594-2.369-3.064.037c-1.596 0-1.665-1.134-1.665-4.96l-.037-4.067zm31.761-2.283l-4.092-.022c-4.08-.022-4.84 3.349-4.84 6.883s.769 6.818 4.84 6.818h4.092c4.026.001 4.791-3.254 4.791-6.818 0-3.565-.793-6.84-4.79-6.86zm0 2.369c2.148.012 2.423 2.397 2.423 4.492s-.313 4.45-2.423 4.45h-4.092c-2.25 0-2.472-2.415-2.472-4.45 0-2.036.225-4.526 2.472-4.514zM43.971.321c-3.38-.004-5.49 1.99-5.49 5.085 0 3.52 2.828 5.366 6.16 5.366h3.71c2.254 0 3.448 1.481 3.472 3.442.023 1.878-.884 3.072-2.803 3.072H38.518l.502 2.37h10c3.444 0 5.172-2.352 5.172-5.442 0-3.284-2.373-5.81-5.842-5.81h-3.71c-2.204 0-3.725-1.047-3.79-2.998-.066-1.962 1.283-2.718 3.12-2.716l9.416.01-.594-2.37-8.821-.009z"
     fill="#878787"
     fill-rule="evenodd"
     id="path22" />
</svg>
